<?xml version="1.0" encoding="UTF-8"?>
<svg width="145px" height="46px" viewBox="0 0 145 46" version="1.1" xmlns="http://www.w3.org/2000/svg" xmlns:xlink="http://www.w3.org/1999/xlink">
    <!-- Generator: Sketch 61.1 (89650) - https://sketch.com -->
    <title>unform</title>
    <desc>Created with Sketch.</desc>
    <g id="Page-1" stroke="none" stroke-width="1" fill="none" fill-rule="evenodd">
        <g id="Artboard" transform="translate(-328.000000, -183.000000)" fill="#7159C1" fill-rule="nonzero">
            <path d="M342.902,227.906 L343.574,227.822 C343.952,227.738 344.456,227.696 344.96,227.654 C347.816,227.276 350.882,224.672 351.764,222.11 L351.806,222.11 C352.436,220.388 352.856,218.75 353.066,217.154 C353.15,216.566 353.234,215.852 353.276,215.222 L353.402,213.92 C353.444,213.458 353.486,212.996 353.57,212.66 L353.738,211.568 C353.948,209.846 353.948,207.872 353.948,206.024 C353.948,204.092 353.864,202.076 353.78,200.144 C353.654,197.33 353.36,194.348 353.024,191.534 L352.94,191.492 C352.898,190.988 352.898,190.484 352.73,189.938 C352.52,189.224 352.226,188.678 351.806,188.258 L350.126,186.62 C349.538,185.78 348.656,185.234 347.564,185.066 C347.102,184.982 346.346,184.898 345.842,184.898 C345.128,184.856 344.036,184.814 343.322,184.856 C341.096,184.982 340.214,186.032 339.92,187.334 L339.626,187.04 C339.164,186.158 338.282,185.57 337.064,185.318 L335.678,185.192 L335.09,185.192 C334.88,185.192 334.67,185.15 334.502,185.15 C334.124,185.15 333.746,185.15 333.284,185.108 C330.134,184.856 328.958,186.41 328.958,188.972 C328.958,189.35 328.916,189.728 328.916,190.064 L328.916,191.114 C328.916,192.248 328.958,193.76 329.042,194.894 C329.084,195.524 329.042,196.028 329.042,196.616 L329.042,199.766 C329.042,199.934 329,200.06 329,200.228 L329,200.69 C329.042,201.698 329.084,202.706 329.084,203.672 L329.252,207.242 C329.294,208.04 329.336,208.796 329.336,209.594 C329.294,211.274 329.378,213.29 329.672,214.97 L329.672,214.928 C330.05,217.196 330.806,219.38 332.192,221.27 C332.906,222.236 333.746,223.118 334.67,223.832 L335.678,224.798 C336.98,226.142 338.618,227.108 340.55,227.654 C341.138,227.78 342.188,227.906 342.902,227.906 Z M338.912,223.622 C336.77,223.034 335.174,221.774 333.872,220.01 C332.696,218.414 332.066,216.566 331.73,214.634 C331.478,212.996 331.352,211.358 331.436,209.678 C331.436,209.118 331.417333,208.558 331.392444,207.998 L331.184,203.63 C331.184,202.664 331.142,201.656 331.1,200.648 C331.1,200.06 331.142,199.514 331.142,198.968 C331.142,197.54 331.226,196.154 331.142,194.768 C331.016,192.836 331.016,190.904 331.058,188.972 C331.058,187.796 331.604,187.082 333.116,187.208 C333.872,187.292 334.67,187.25 335.468,187.292 L336.77,187.418 C337.568,187.586 337.988,188.048 338.072,188.846 L338.072,189.602 C337.988,191.366 338.072,193.088 338.198,194.81 L338.198,195.65 C338.24,197.54 338.24,199.388 338.324,201.278 C338.366,202.496 338.366,203.672 338.324,204.89 C338.282,206.402 338.324,207.914 338.366,209.426 C338.366,210.602 338.408,211.778 338.45,212.912 C338.45,213.836 338.492,214.76 338.744,215.684 C338.87,216.02 338.996,216.356 339.164,216.692 C339.248,216.86 339.374,216.986 339.5,217.154 C340.214,217.826 341.054,217.742 341.516,216.86 C341.852,216.314 341.978,215.684 342.104,215.054 C342.608,211.82 343.07,208.586 342.986,205.268 L342.986,203.168 L343.028,203.168 L343.028,200.984 C342.986,199.682 342.944,198.38 342.86,197.078 C342.692,195.188 342.482,193.34 342.272,191.492 L342.02,189.476 L341.936,188.552 C341.936,187.754 342.188,186.998 343.448,186.956 C344.204,186.914 344.96,186.956 345.716,186.998 C346.22,186.998 346.682,187.04 347.144,187.124 C348.026,187.208 348.53,187.628 348.74,188.468 C348.866,188.846 348.908,189.266 348.95,189.686 C349.286,192.5 349.58,195.314 349.706,198.128 C349.79,200.06 349.874,201.992 349.874,203.924 C349.874,205.688 349.874,207.452 349.664,209.216 C349.58,210.014 349.412,210.812 349.328,211.61 C349.202,212.66 349.16,213.71 348.992,214.802 C348.782,216.314 348.404,217.826 347.858,219.338 C347.186,221.312 344.876,223.286 342.65,223.58 C341.978,223.622 341.348,223.748 340.718,223.832 C340.088,223.874 339.5,223.748 338.912,223.622 Z M372.848,224.084 L368.984,224 L368.732,224 C367.934,223.916 367.346,223.538 367.094,222.782 C366.968,222.362 366.842,221.9 366.758,221.48 C366.212,217.994 365.456,214.55 364.7,211.106 C364.406,209.804 364.028,208.502 363.692,207.2 L361.676,199.262 C361.508,198.548 361.256,197.918 361.046,197.246 C360.962,196.994 360.836,196.574 360.5,196.658 C360.248,196.742 360.248,197.036 360.206,197.288 C359.996,198.17 359.996,199.094 360.08,199.976 C360.164,201.11 360.038,202.202 360.038,203.336 L360.038,211.148 C360.08,212.702 360.206,214.256 360.248,215.852 C360.248,217.406 360.374,218.96 360.542,220.514 C360.542,220.808 360.626,221.06 360.626,221.354 C360.668,221.564 360.71,221.816 360.71,222.026 C360.794,222.824 360.374,223.622 359.24,223.664 L357.224,223.832 L356.468,223.832 C355.712,223.748 355.25,223.328 355.166,222.53 C355.124,222.404 355.124,222.278 355.124,222.11 C355.124,220.178 355.04,218.204 355.082,216.23 C355.082,213.626 354.998,210.98 354.998,208.376 C355.04,205.142 354.998,201.908 354.998,198.716 C354.998,196.742 354.914,194.81 354.956,192.836 C354.956,191.282 354.914,189.686 355.124,188.132 C355.292,187.04 355.796,186.536 356.888,186.368 C357.896,186.2 358.862,186.284 359.828,186.368 C360.794,186.452 361.718,186.62 362.6,186.872 L363.23,187.124 C363.818,187.418 364.238,187.838 364.448,188.468 C364.532,188.678 364.616,188.888 364.658,189.098 C365.246,191.282 365.75,193.466 366.338,195.692 L368.144,202.832 L368.774,205.184 C368.858,205.478 368.942,205.772 369.068,206.024 C369.11,206.15 369.236,206.444 369.362,206.402 C369.572,206.318 369.572,206.15 369.614,206.024 C369.656,205.688 369.74,205.31 369.74,204.974 C369.824,203.378 369.908,201.824 369.908,200.27 C369.908,198.842 369.824,197.414 369.782,195.986 C369.782,195.188 369.782,194.432 369.74,193.634 C369.698,192.122 369.656,190.61 369.656,189.098 C369.614,188.762 369.698,188.426 369.74,188.132 C369.866,187.628 370.202,187.334 370.622,187.166 C371.294,186.872 371.966,186.788 372.68,186.914 C373.226,186.998 373.646,187.334 373.856,187.88 L373.982,188.426 C374.234,189.812 374.486,191.198 374.696,192.584 C374.822,193.298 374.906,194.012 374.948,194.726 C375.116,197.204 375.242,199.64 375.368,202.118 C375.452,203.756 375.578,205.394 375.578,207.074 C375.578,208.46 375.494,209.846 375.452,211.232 C375.41,212.114 375.326,212.996 375.326,213.836 L375.116,221.396 C375.116,221.816 375.074,222.236 374.99,222.656 C374.822,223.454 374.318,223.916 373.52,224 C373.268,224.042 373.058,224.084 372.848,224.084 Z M375.536,186.578 C374.948,185.612 374.066,185.024 373.016,184.856 C371.966,184.688 370.916,184.772 369.866,185.192 C368.942,185.57 367.934,186.452 367.64,187.796 L367.64,187.964 C367.598,188.09 367.556,188.3 367.556,188.468 L367.43,188.342 L366.044,186.998 C365.54,186.242 364.784,185.57 363.986,185.15 L363.398,184.94 C362.138,184.562 361.004,184.352 359.996,184.268 C359.45,184.226 358.694,184.184 358.148,184.184 C357.602,184.184 357.098,184.184 356.468,184.31 L356.51,184.31 C354.41,184.688 353.402,185.696 353.024,187.88 C352.88,189.032 352.859429,190.276571 352.85649,191.534367 L352.856,192.836 C352.814,193.55 352.856,194.39 352.856,195.188 L352.856,197.54 C352.856,197.918 352.898,198.338 352.898,198.716 L352.898852,209.382485 C352.901124,210.380893 352.909455,211.583273 352.94,212.408 L352.94,214.34 C352.94,214.97 352.982,215.6 352.982,216.23 C352.94,216.944 352.982,217.784 352.982,218.624 L352.982,219.8 C352.982,220.22 353.024,220.598 353.024,220.976 L353.024,222.11 C353.024,222.32 353.024,222.698 353.066,222.908 C353.234,224.168 353.822,224.966 354.704,225.47 L356.174,226.94 C356.72,227.486 357.434,227.78 358.358,227.906 L359.366,227.906 L361.424,227.738 L361.466,227.738 C364.028,227.612 364.952,225.764 364.784,223.916 C364.742,223.748 364.7,223.538 364.7,223.37 C364.7,223.244 364.658,222.782 364.658,222.656 C364.616,222.53 364.616,222.488 364.616,222.404 C364.532,221.564 364.406,220.724 364.364,219.884 L364.7,221.942 L365.078,223.454 C365.372,224.42 365.96,225.134 366.716,225.554 L368.186,227.024 C368.774,227.612 369.614,227.99 370.622,228.074 L371.084,228.074 L374.948,228.158 C375.242,228.158 375.536,228.116 375.788,228.074 C377.678,227.906 378.644,226.856 379.022,225.176 C379.148,224.63 379.19,224.042 379.19,223.496 L379.4,215.978 C379.4,215.432 379.442,214.886 379.484,214.298 C379.484,214.004 379.526,213.626 379.526,213.332 C379.526,212.87 379.568,212.492 379.568,212.03 C379.61,211.106 379.652,210.098 379.652,209.174 C379.652,207.914 379.61,206.486 379.526,205.268 C379.484,204.848 379.442,204.47 379.442,204.176 C379.316,201.74 379.19,199.136 379.022,196.7 C378.98,196.112 378.896,195.146 378.728,194.348 C378.518,192.962 378.266,191.534 378.014,190.148 L377.846,189.434 C377.636,188.846 377.342,188.384 376.964,188.006 L376.796,187.88 C376.796,187.838 376.796,187.838 376.754,187.838 L375.536,186.578 Z M384.734,228.368 C385.532,228.326 386.624,228.242 387.422,228.158 C387.842,228.158 388.22,228.116 388.556,227.906 C389.942,227.402 390.698,226.436 390.782,224.756 L390.74,224.714 C390.782,224.504 390.782,224.252 390.782,224.126 L390.782,223.79 L390.488,216.86 C390.404,214.76 390.32,212.576 390.152,210.476 L390.152,210.434 L391.958,210.434 C392.588,210.434 393.176,210.434 393.68,210.392 C395.612,210.182 396.746,209.132 396.956,207.2 C396.998,206.822 396.998,206.234 396.998,205.772 C396.998,205.31 396.998,204.722 396.956,204.344 C396.83,203.336 396.536,202.622 396.032,202.118 L394.394,200.522 C393.89,199.64 393.05,199.178 392.042,198.926 C391.832,198.842 391.664,198.842 391.412,198.842 L391.244,198.842 C390.782,198.8 390.362,198.716 389.984,198.716 L389.984,197.918 C389.984,197.666 389.942,197.414 389.942,197.162 L389.942,196.364 L390.404,196.28 L391.16,196.28 C391.79,196.28 392.504,196.322 393.134,196.28 C394.73,196.196 395.906,195.272 396.41,193.802 C396.536,193.382 396.62,192.92 396.62,192.458 C396.662,191.954 396.662,191.072 396.62,190.526 C396.62,190.4 396.536,190.064 396.494,189.854 C396.326,188.972 395.948,188.258 395.444,187.754 L393.974,186.326 C393.428,185.36 392.504,184.772 391.412,184.604 C390.572,184.436 389.564,184.394 388.43,184.478 C387.8,184.562 387.044,184.604 386.162,184.604 L385.532,184.604 C385.322,184.604 385.112,184.562 384.902,184.562 C384.314,184.562 383.264,184.562 382.592,184.604 C379.862,184.73 378.77,186.032 378.602,188.552 C378.572,188.882 378.563429,189.383429 378.56098,189.811388 L378.56098,190.736612 C378.563429,191.164571 378.572,191.666 378.602,191.996 L378.602,192.794 C378.602,193.046 378.644,193.298 378.644,193.55 C378.686,194.642 378.728,195.692 378.728,196.826 L378.728,198.632 C378.728,199.22 378.77,199.85 378.77,200.438 C378.77,202.79 378.812,205.226 378.854,207.746 C378.854,208.124 378.896,208.502 378.896,208.838 L378.896,211.862 C378.896,212.282 378.854,212.702 378.854,213.08 L378.854516,217.925944 C378.856237,219.405598 378.863692,221.095538 378.896,223.034 C378.938,223.37 378.98,223.664 379.148,224 C379.4,224.798 379.988,225.512 380.702,225.932 L382.13,227.36 C382.466,227.738 382.928,227.99 383.39,228.158 C383.852,228.326 384.272,228.368 384.734,228.368 Z M382.592,224.294 C382.382,224.294 382.13,224.252 381.92,224.168 C381.542,224.042 381.248,223.748 381.164,223.37 C381.08,223.16 381.038,222.908 380.996,222.698 C380.954,220.178 380.954,218.414 380.954,216.65 C380.954,215.054 380.996,213.458 380.996,211.862 C380.996,210.518 380.954,209.132 380.954,207.746 C380.87,203.882 380.87,200.354 380.828,196.826 C380.828,195.146 380.744,193.508 380.702,191.828 C380.66,190.778 380.66,189.728 380.702,188.72 C380.744,187.334 381.248,186.746 382.718,186.704 C383.432,186.662 384.146,186.662 384.902,186.662 C386.162,186.704 387.422,186.704 388.682,186.536 C389.522,186.452 390.362,186.536 391.16,186.704 C391.874,186.788 392.336,187.208 392.462,187.922 C392.504,188.174 392.546,188.384 392.546,188.594 C392.588,189.14 392.588,189.644 392.546,190.19 C392.546,190.484 392.504,190.82 392.42,191.114 C392.21,191.744 391.664,192.164 390.908,192.206 C389.984,192.248 389.06,192.206 388.136,192.206 C387.758,192.248 387.338,192.29 386.96,192.374 C386.456,192.5 386.078,192.836 385.994,193.382 C385.952,193.676 385.868,194.012 385.868,194.306 C385.868,194.81 385.91,195.314 385.91,195.818 C385.91,196.784 385.952,197.708 385.952,198.674 L386.036,199.682 C386.12,200.186 386.372,200.564 386.918,200.648 C387.212,200.732 387.506,200.774 387.842,200.774 C388.934,200.774 390.068,200.774 391.16,200.942 C391.286,200.942 391.412,200.942 391.496,200.984 C392.294,201.152 392.798,201.488 392.882,202.454 C392.966,203.252 392.966,204.05 392.882,204.89 C392.798,205.772 392.294,206.234 391.412,206.318 C390.74,206.402 390.026,206.36 389.312,206.36 C388.724,206.36 388.136,206.318 387.548,206.318 L387.38,206.318 C386.582,206.402 386.12,206.822 386.078,207.662 C386.036,207.956 386.036,208.25 386.078,208.586 C386.246,210.686 386.33,212.744 386.414,214.844 L386.708,221.732 C386.708,222.026 386.75,222.278 386.708,222.572 C386.666,223.412 386.33,223.832 385.49,224.042 C385.448,224.084 385.406,224.084 385.322,224.084 C384.398,224.168 383.516,224.252 382.592,224.294 Z M408.044,228.158 C408.968,228.158 409.85,228.074 410.732,227.864 C413.588,227.108 415.688,225.344 416.906,222.74 L416.864,222.74 C417.494,221.48 417.788,220.262 417.956,218.96 L417.956,218.75 C418.04,217.952 418.124,217.028 418.166,216.23 C418.208,215.306 418.208,214.214 418.208,213.29 L418.082,211.19 C418.04,210.56 417.998,210.014 417.998,209.384 C417.956,206.948 417.83,204.218 417.662,201.782 C417.536,199.682 417.284,197.414 417.074,195.314 C416.864,194.012 416.612,192.71 416.024,191.408 L416.066,191.45 C415.604,190.358 414.974,189.434 414.218,188.678 L413,187.46 C411.824,185.906 410.102,184.772 408.086,184.268 C406.91,183.974 405.65,183.974 404.474,183.974 C403.592,183.974 402.584,184.142 401.744,184.394 C399.392,185.15 397.712,186.872 396.662,189.014 C395.78,190.862 395.318,192.794 395.318,194.852 C395.318,194.978 395.276,195.104 395.276,195.23 L395.276,196.154 L395.15,198.086 L395.15,198.8 C395.15,199.388 395.15,200.144 395.108,200.69 C394.99775,201.572 394.983969,202.71125 394.982246,203.770109 L394.982,208.334 C394.982,208.754 394.982,209.426 395.024,209.846 C395.108,211.358 395.192,212.954 395.318,214.466 C395.402,215.516 395.486,216.692 395.738,217.784 C396.242,220.43 397.586,222.446 399.518,223.958 L399.56,224 L400.652,225.05 C401.702,226.1 403.004,226.94 404.516,227.612 C404.726,227.738 404.978,227.822 405.566,227.906 C406.322,228.074 407.246,228.158 408.044,228.158 Z M403.844,223.874 C403.592,223.832 403.382,223.748 403.172,223.664 C400.358,222.404 398.342,220.472 397.796,217.322 C397.586,216.314 397.502,215.306 397.418,214.298 C397.292,212.744 397.208,211.19 397.124,209.636 C397.082,208.754 397.124,207.872 397.082,207.032 L397.082,205.94 C397.124,204.218 396.998,202.538 397.208,200.816 C397.292,199.934 397.25,199.052 397.25,198.128 L397.376,196.28 C397.376,195.818 397.418,195.356 397.418,194.852 C397.418,193.13 397.796,191.492 398.552,189.938 C399.392,188.258 400.61,186.998 402.416,186.41 C403.088,186.158 403.76,186.074 404.474,186.074 C405.524,186.074 406.574,186.074 407.624,186.326 C409.808,186.788 411.278,188.132 412.16,190.148 C412.664,191.198 412.874,192.332 413.042,193.466 C413.252,195.566 413.462,197.708 413.588,199.808 C413.756,202.286 413.882,204.806 413.924,207.284 C413.966,208.586 414.092,209.888 414.134,211.232 C414.134,212.156 414.134,213.122 414.092,214.046 C414.05,214.928 413.966,215.768 413.882,216.65 C413.756,217.742 413.504,218.792 413,219.8 C412.034,221.858 410.396,223.244 408.17,223.832 C406.742,224.168 405.272,224.168 403.844,223.874 Z M405.986,216.398 C406.238,216.23 406.532,216.02 406.7,215.81 C406.91,215.516 407.078,215.18 407.204,214.844 C407.414,214.424 407.498,213.962 407.498,213.458 C407.498,211.904 407.498,210.35 407.456,208.754 L407.162,199.304 C407.078,198.002 406.952,196.742 406.784,195.44 C406.742,194.894 406.532,194.39 406.364,193.844 C406.238,193.424 406.028,193.088 405.692,192.794 C405.314,192.5 404.894,192.29 404.39,192.374 C403.886,192.5 403.508,192.752 403.298,193.214 C403.13,193.55 403.004,193.886 402.962,194.264 C402.878,194.936 402.794,195.65 402.794,196.322 C402.752,198.506 402.626,200.648 402.71,202.79 C402.794,204.218 402.752,205.646 402.794,207.074 C402.794,207.494 402.836,207.914 402.878,208.334 C402.962,209.09 403.046,209.888 403.088,210.644 L403.172,212.996 C403.214,213.962 403.382,214.844 403.928,215.642 C404.138,215.936 404.39,216.188 404.726,216.356 C405.146,216.608 405.566,216.608 405.986,216.398 Z M433.58,228.872 C434.042,228.872 434.336,228.83 434.672,228.746 C435.134,228.62 435.806,228.536 436.394,228.452 L437.276,228.368 L437.906,228.2 C439.418,227.654 440.132,226.814 440.174,225.554 C440.216,224.882 440.09,224.168 439.838,223.58 L439.754,223.538 L437.948,218.078 C437.528,216.86 437.15,215.684 436.94,214.508 C436.73,212.954 436.352,211.526 435.974,210.182 L435.386,208.292 L436.184,207.452 L436.142,207.452 C437.864,205.604 439.04,203.462 439.334,200.858 C439.418,200.186 439.46,199.388 439.46,198.548 C439.46,197.54 439.376,196.574 439.292,195.734 C439.25,195.272 439.124,194.642 438.956,194.012 C438.536,192.416 437.738,191.114 436.814,189.938 C436.562,189.602 436.31,189.35 436.016,189.056 L435.05,188.132 L434.798,187.754 C433.076,185.612 430.808,184.31 428.12,184.016 C426.944,183.89 425.684,183.89 424.466,183.89 C423.542,183.89 422.576,184.016 421.694,184.184 C421.064,184.226 420.56,184.352 420.14,184.52 C418.67,185.024 417.788,186.158 417.578,187.586 C417.5465,187.7435 417.538625,187.924625 417.536656,188.076219 L417.536,188.426 L417.41,191.912 C417.41,192.752 417.368,193.76 417.326,194.558 C417.2,196.406 417.074,198.38 417.074,200.228 C417.074,200.816 417.116,201.95 417.158,202.664 L417.158,202.832 C417.158,202.916 417.116,203 417.116,203.042 L417.116,205.31 C417.116,205.562 417.074,205.814 417.074,206.066 L417.07498,206.528612 C417.077429,206.956571 417.086,207.458 417.116,207.788 L417.116,208.46 C417.116,208.67 417.158,208.88 417.158,209.132 C417.158,209.3 417.116,209.468 417.116,209.636 L417.116,211.064 C417.116,211.568 417.158,211.946 417.158,212.282 L417.158,212.912 C417.158,213.92 417.2,214.886 417.2,215.348 C417.2,216.986 417.242,219.548 417.284,221.27 L417.284,222.068 C417.284,222.236 417.326,222.404 417.326,222.53 L417.326,222.908 L417.41,223.454 C417.662,224.714 418.208,225.68 419.174,226.184 L420.644,227.654 C421.19,228.2 421.988,228.536 422.954,228.536 C424.214,228.536 425.348,228.41 426.482,228.116 C427.784,227.738 428.624,227.024 429.002,225.89 C429.212,226.1 429.464,226.31 429.716,226.436 L431.228,227.948 C431.816,228.536 432.614,228.83 433.58,228.872 Z M431.564,224.798 C430.976,224.756 430.514,224.546 430.262,224 C430.094,223.706 430.01,223.37 429.926,223.076 C429.296,220.598 428.708,218.12 428.12,215.642 C427.616,213.416 427.028,211.19 426.398,209.006 L426.146,208.292 C426.02,208.124 425.852,207.914 425.684,207.788 C425.474,207.62 425.222,207.662 425.012,207.872 C424.76,208.082 424.676,208.418 424.676,208.754 C424.676,209.552 424.634,210.392 424.676,211.19 C424.718,213.332 424.802,215.516 424.886,217.658 C424.928,218.834 425.054,220.052 425.138,221.228 C425.18,221.648 425.18,222.068 425.18,222.488 C425.138,223.37 424.718,223.874 423.92,224.084 C422.912,224.336 421.904,224.462 420.854,224.462 C420.098,224.462 419.636,224.042 419.51,223.328 L419.426,222.908 C419.426,222.362 419.384,221.774 419.384,221.228 C419.3,218.288 419.3,215.348 419.258,212.408 L419.3,212.408 C419.258,211.988 419.216,211.526 419.216,211.064 C419.216,210.434 419.258,209.804 419.258,209.132 C419.258,208.124 419.174,207.074 419.174,206.066 C419.174,205.1 419.216,204.134 419.216,203.21 C419.216,202.958 419.258,202.748 419.258,202.538 C419.09,199.892 419.258,197.288 419.426,194.642 C419.468,193.76 419.51,192.878 419.51,191.954 L419.636,188.51 C419.636,188.342 419.636,188.174 419.678,188.006 C419.762,187.292 420.098,186.746 420.812,186.536 C421.19,186.41 421.568,186.326 421.946,186.284 C422.786,186.116 423.626,185.99 424.466,185.99 C425.6,185.99 426.734,185.99 427.91,186.116 C430.094,186.368 431.816,187.334 433.16,189.056 C433.958,190.064 434.63,191.156 434.966,192.416 C435.092,192.878 435.176,193.34 435.218,193.802 C435.386,195.398 435.428,196.952 435.26,198.506 C435.008,200.69 434.042,202.496 432.572,204.05 L431.732,204.932 C431.312,205.394 431.144,205.94 431.354,206.57 L431.984,208.628 C432.362,209.972 432.698,211.358 432.908,212.702 C433.118,214.046 433.538,215.306 434,216.608 C434.588,218.414 435.218,220.262 435.848,222.068 C435.974,222.446 436.142,222.782 436.1,223.202 C436.1,223.664 435.89,224 435.428,224.168 L434.882,224.294 C433.958,224.42 433.034,224.504 432.152,224.714 C431.942,224.756 431.732,224.798 431.564,224.798 Z M426.062,202.034 C427.112,201.866 427.994,201.446 428.666,200.648 C430.472,198.464 430.598,196.028 429.632,193.55 C429.128,192.164 427.826,191.576 426.44,191.912 C425.726,192.038 425.18,192.458 425.096,193.214 L425.012,194.39 L424.928,196.49 L424.676,200.144 C424.676,200.354 424.634,200.648 424.676,200.9 C424.718,201.782 425.222,202.16 426.062,202.034 Z M468.692,228.032 C470.456,227.864 471.464,226.772 471.842,225.134 C471.968,224.63 472.052,224.252 472.052,223.748 C472.094,222.614 472.094,221.396 472.094,220.304 C472.094,219.59 472.052,218.876 472.052,218.162 C472.01,216.734 471.968,215.348 471.968,213.92 L471.968,206.192 L471.8,199.934 C471.716,197.12 471.506,194.138 471.044,191.156 C471.044,190.862 470.96,190.61 470.918,190.4 L470.918,190.232 C470.75,189.392 470.372,188.72 469.868,188.216 L468.482,186.872 C467.768,185.57 466.466,184.94 464.87,184.982 C464.282,185.024 463.82,185.066 463.358,185.192 L463.358,185.234 C462.434,185.36 461.552,185.444 460.796,185.444 C460.166,185.486 459.62,185.528 459.158,185.612 C457.646,185.822 456.722,186.704 456.176,187.964 C455.966,188.426 455.798,188.972 455.714,189.308 L455.336,190.862 C455.084,190.148 454.748,189.602 454.37,189.182 L453.026,187.838 C452.354,186.62 451.262,186.032 449.666,185.948 C448.994,185.948 448.07,185.948 447.356,185.99 C446.684,186.074 445.802,186.074 445.13,186.032 C444.374,185.948 443.282,185.948 442.358,185.948 C440.636,186.074 439.586,186.956 439.124,188.384 C438.9035,189.0455 438.875938,189.707 438.872492,190.312227 L438.872,207.032 C438.872,208.124 438.914,209.93 438.956,211.106 L438.956461,211.409506 C438.958074,211.840222 438.965333,212.482667 438.998,212.744 C438.998,212.996 439.04,213.206 439.04,213.416 L439.04,222.026 C439.166,223.79 439.796,224.924 441.014,225.554 L442.358,226.898 C442.946,227.486 443.744,227.864 444.794,228.032 C445.088,228.116 445.172,228.074 445.424,228.074 L447.062,228.074 C449.246,227.99 450.38,227.066 450.758,225.05 C450.8,225.05 450.8,225.092 450.842,225.092 L452.48,226.73 C453.068,227.318 453.908,227.654 454.874,227.738 C455.21,227.738 455.84,227.822 456.218,227.822 L456.26,227.822 C458.822,227.864 459.956,227.108 460.586,224.504 L460.544,224.462 C460.67,224 460.754,223.622 460.838,223.16 C461.09,224.294 461.678,225.134 462.518,225.596 L464.03,227.108 C464.576,227.654 465.332,227.99 466.256,228.074 C467.054,228.116 467.936,228.116 468.692,228.032 Z M464.324,224 C463.526,223.916 463.022,223.454 462.896,222.572 C462.854,221.984 462.854,221.354 462.896,220.766 C463.022,218.33 463.064,215.894 462.938,213.458 C462.896,212.156 462.686,210.854 462.56,209.51 C462.35,207.242 462.056,204.974 461.972,202.664 C461.972,201.908 461.846,201.152 461.636,200.438 C461.258,199.346 460.796,200.354 460.67,200.816 C460.418,201.824 460.208,202.874 459.998,203.924 C459.662,205.562 459.368,207.2 459.074,208.88 L458.486,212.24 L456.848,220.472 C456.764,220.976 456.68,221.48 456.554,221.942 C456.218,223.37 455.588,223.79 454.16,223.748 L452.984,223.664 C452.144,223.58 451.556,223.16 451.346,222.32 C451.22,221.858 451.136,221.396 451.052,220.934 C450.842,219.338 450.632,217.7 450.38,216.104 C450.212,214.97 450.044,213.836 449.834,212.744 L448.868,207.368 C448.616,205.94 448.322,204.554 448.028,203.168 C447.902,202.748 447.776,202.37 447.608,201.992 C447.566,201.866 447.524,201.656 447.356,201.656 C446.978,201.698 447.02,202.412 447.02,202.79 C446.978,203.546 446.978,204.26 447.02,204.974 C447.062,206.906 447.02,208.796 446.894,210.686 L446.894,211.106 C446.894,214.298 446.852,217.49 446.852,220.682 C446.852,221.06 446.852,221.48 446.81,221.858 C446.81,222.026 446.81,222.194 446.768,222.362 C446.6,223.496 446.054,223.958 444.92,224 L443.324,224 C443.24,224 443.156,224 443.072,223.958 C441.77,223.832 441.224,223.244 441.14,221.942 L441.14,214.046 C441.14,213.08 441.056,212.072 441.056,211.064 C441.014,209.72 440.972,208.376 440.972,207.032 L440.972,190.568 C440.972,190.064 440.972,189.56 441.14,189.056 C441.35,188.426 441.77,188.09 442.442,188.048 C443.282,188.048 444.164,188.048 445.046,188.132 C445.886,188.174 446.684,188.174 447.524,188.09 C448.238,188.048 448.952,188.048 449.624,188.048 C450.548,188.09 451.094,188.51 451.388,189.392 C451.514,189.854 451.598,190.358 451.682,190.862 L452.858,197.708 C453.026,198.716 453.068,199.766 453.194,200.774 L453.404,203.546 L453.572,204.722 C453.614,204.974 453.74,205.268 453.95,205.394 C454.286,205.394 454.37,205.142 454.454,204.89 C454.664,204.26 454.874,203.63 455,202.958 C455.294,201.824 455.546,200.69 455.756,199.514 L456.596,195.062 C456.974,193.298 457.352,191.576 457.772,189.812 C457.856,189.476 457.94,189.14 458.108,188.804 C458.36,188.174 458.78,187.796 459.452,187.712 C459.914,187.628 460.418,187.586 460.88,187.544 C461.846,187.544 462.77,187.418 463.694,187.292 C464.156,187.208 464.576,187.124 465.038,187.082 C465.962,187.04 466.634,187.46 466.844,188.384 C466.886,188.636 466.97,188.846 466.97,189.098 C467.432,192.038 467.642,194.936 467.726,197.876 L467.894,204.092 C467.894,206.654 467.852,209.258 467.894,211.82 C467.894,213.962 467.978,216.062 468.02,218.204 C468.02,219.296 468.02,220.43 467.978,221.564 C467.978,221.9 467.936,222.236 467.852,222.53 C467.684,223.412 467.222,223.916 466.34,223.958 C465.668,224.042 464.996,224.042 464.324,224 Z" id="unform"></path>
        </g>
    </g>
</svg>