<svg xmlns="http://www.w3.org/2000/svg" width="361.064" height="300" viewBox="0 0 361.064 300">
  <g id="Group_1634" data-name="Group 1634" transform="translate(-822 -1583)">
    <g id="Group_1538" data-name="Group 1538" transform="translate(0 29)">
      <path id="Path_3048" data-name="Path 3048" d="M349.516,184.564H281.5a11.548,11.548,0,0,1,0-23.1h68.02a11.548,11.548,0,0,0,0-23.1H263.677c-.121,0-.232-.022-.353-.022H195.3a11.545,11.545,0,0,1-2.164-22.887h79.513a11.548,11.548,0,1,0,0-23.1H265.51a11.716,11.716,0,0,0-2.175-.21H248.4a11.547,11.547,0,0,1,2.175-22.887h90.984a11.548,11.548,0,0,0,0-23.1h-68.02a11.548,11.548,0,1,1,0-23.1h68.02a11.548,11.548,0,0,0,0-23.1H89.78a11.549,11.549,0,0,0,0,23.1H157.8a11.545,11.545,0,0,1,2.164,22.887H80.451a11.548,11.548,0,0,0,0,23.1h7.154a11.717,11.717,0,0,0,2.175.21h14.927a11.547,11.547,0,0,1-2.175,22.887H11.548a11.554,11.554,0,0,0,0,23.108h68.02a11.548,11.548,0,1,1,0,23.1H11.548a11.543,11.543,0,1,0,0,23.085H97.387c.121,0,.232.022.353.022h68.02a11.546,11.546,0,0,1,1.2,23.03H88.422a11.548,11.548,0,0,0,0,23.1h8.115a11.04,11.04,0,0,0,1.214.066h13.966a11.547,11.547,0,0,1-1.214,23.03H19.519a11.548,11.548,0,0,0,0,23.1h68.02a11.548,11.548,0,1,1,0,23.1H19.508a11.548,11.548,0,0,0,0,23.1H271.284a11.549,11.549,0,0,0,0-23.1h-68.02a11.546,11.546,0,0,1-1.2-23.03h78.552a11.548,11.548,0,0,0,0-23.1H272.5a11.044,11.044,0,0,0-1.214-.066H257.318a11.547,11.547,0,0,1,1.214-23.03h90.984a11.548,11.548,0,0,0,0-23.1ZM180.764,69.28a11.545,11.545,0,0,1,2.164,22.887h-10.6a11.545,11.545,0,0,1-2.164-22.887h10.6Zm-.464,161.4a11.546,11.546,0,0,1-1.2-23.03h9.638a11.546,11.546,0,0,1,1.2,23.03Z" transform="translate(822 1554.02)" fill="#f0c1c2"/>
      <g id="Group_29" data-name="Group 29" transform="translate(831 1587)">
        <g id="Group_44" data-name="Group 44">
          <g id="Group_40" data-name="Group 40" transform="translate(48)">
            <g id="Group_41" data-name="Group 41" transform="translate(5)">
              <g id="chatting-communication-chat-bubble-3b6bea64cc673e7f" transform="translate(165)">
                <path id="Shape" d="M36.29,0C16.14,0,0,3.32,0,27.75,0,43.23,6.72,50.23,16.72,53.28v11l9-9.23a106.109,106.109,0,0,0,10.65.46c20.16,0,36.44-3.32,36.44-27.75S56.45,0,36.29,0Z" fill="#e71921" opacity="0.552"/>
                <circle id="Oval" cx="4.37" cy="4.37" r="4.37" transform="translate(17.93 23.39)" fill="#fff"/>
                <circle id="Oval-2" data-name="Oval" cx="4.37" cy="4.37" r="4.37" transform="translate(31.93 23.39)" fill="#fff"/>
                <circle id="Oval-3" data-name="Oval" cx="4.37" cy="4.37" r="4.37" transform="translate(45.93 23.39)" fill="#fff"/>
              </g>
              <g id="chatting-communication-chat-bubble-3b6bea64cc673e7f_copy" data-name="chatting-communication-chat-bubble-3b6bea64cc673e7f copy" transform="translate(137 3) rotate(180)">
                <path id="Shape-2" data-name="Shape" d="M-22.371,0C-9.949,0,0,2.043,0,17.077,0,26.6-4.142,30.911-10.307,32.788v6.769l-5.548-5.68a65.521,65.521,0,0,1-6.565.283c-12.427,0-22.463-2.043-22.463-17.077S-34.8,0-22.371,0Z" transform="rotate(180)" fill="#e71921" opacity="0.552"/>
                <ellipse id="Oval-4" data-name="Oval" cx="2.694" cy="2.689" rx="2.694" ry="2.689" transform="translate(16.44 -14.394) rotate(180)" fill="#fff"/>
                <ellipse id="Oval-5" data-name="Oval" cx="2.694" cy="2.689" rx="2.694" ry="2.689" transform="translate(25.071 -14.394) rotate(180)" fill="#fff"/>
                <ellipse id="Oval-6" data-name="Oval" cx="2.694" cy="2.689" rx="2.694" ry="2.689" transform="translate(33.701 -14.394) rotate(180)" fill="#fff"/>
              </g>
              <g id="chatting-communication-chat-bubble-3b6bea64cc673e7f_copy_2" data-name="chatting-communication-chat-bubble-3b6bea64cc673e7f copy 2" transform="translate(0 22)">
                <path id="Shape-3" data-name="Shape" d="M25.85,0C11.5,0,0,2.376,0,19.857,0,30.934,4.787,35.943,11.91,38.125l8.813,11.457-2.4-10.19a75.245,75.245,0,0,0,7.586.329c14.361,0,25.957-2.376,25.957-19.857S40.211,0,25.85,0Z" fill="#e71921" opacity="0.552"/>
                <ellipse id="Oval-7" data-name="Oval" cx="3.113" cy="3.127" rx="3.113" ry="3.127" transform="translate(12.772 16.737)" fill="#fff"/>
                <ellipse id="Oval-8" data-name="Oval" cx="3.113" cy="3.127" rx="3.113" ry="3.127" transform="translate(22.745 16.737)" fill="#fff"/>
                <ellipse id="Oval-9" data-name="Oval" cx="3.113" cy="3.127" rx="3.113" ry="3.127" transform="translate(32.717 16.737)" fill="#fff"/>
              </g>
            </g>
            <g id="Group_41_Copy" data-name="Group 41 Copy" transform="translate(161 234) rotate(180)">
              <g id="chatting-communication-chat-bubble-3b6bea64cc673e7f-2" data-name="chatting-communication-chat-bubble-3b6bea64cc673e7f" transform="translate(83)">
                <path id="Shape-4" data-name="Shape" d="M36.29,0C16.14,0,0,3.32,0,27.75,0,43.23,6.72,50.23,16.72,53.28v11l9-9.23a106.109,106.109,0,0,0,10.65.46c20.16,0,36.44-3.32,36.44-27.75S56.45,0,36.29,0Z" fill="#e71921" opacity="0.552"/>
                <circle id="Oval-10" data-name="Oval" cx="4.37" cy="4.37" r="4.37" transform="translate(17.93 23.39)" fill="#fff"/>
                <circle id="Oval-11" data-name="Oval" cx="4.37" cy="4.37" r="4.37" transform="translate(31.93 23.39)" fill="#fff"/>
                <circle id="Oval-12" data-name="Oval" cx="4.37" cy="4.37" r="4.37" transform="translate(45.93 23.39)" fill="#fff"/>
              </g>
              <g id="chatting-communication-chat-bubble-3b6bea64cc673e7f_copy-2" data-name="chatting-communication-chat-bubble-3b6bea64cc673e7f copy" transform="translate(45 13) rotate(180)">
                <path id="Shape-5" data-name="Shape" d="M-22.371,0C-9.949,0,0,2.043,0,17.077,0,26.6-4.142,30.911-10.307,32.788v6.769l-5.548-5.68a65.521,65.521,0,0,1-6.565.283c-12.427,0-22.463-2.043-22.463-17.077S-34.8,0-22.371,0Z" transform="rotate(180)" fill="#e71921" opacity="0.552"/>
                <ellipse id="Oval-13" data-name="Oval" cx="2.694" cy="2.689" rx="2.694" ry="2.689" transform="translate(16.44 -14.394) rotate(180)" fill="#fff"/>
                <ellipse id="Oval-14" data-name="Oval" cx="2.694" cy="2.689" rx="2.694" ry="2.689" transform="translate(25.071 -14.394) rotate(180)" fill="#fff"/>
                <ellipse id="Oval-15" data-name="Oval" cx="2.694" cy="2.689" rx="2.694" ry="2.689" transform="translate(33.701 -14.394) rotate(180)" fill="#fff"/>
              </g>
            </g>
          </g>
        </g>
        <path id="surface1" d="M97.229,100h0l-5.144-6.825A62.733,62.733,0,0,0,119.182,75,73.656,73.656,0,0,1,99.545,85.684,80.81,80.81,0,0,1,85.833,89.26,100.3,100.3,0,0,1,69,90.625,100.289,100.289,0,0,1,52.168,89.26a80.8,80.8,0,0,1-13.712-3.577A73.65,73.65,0,0,1,18.818,75a62.777,62.777,0,0,0,27.1,18.175L40.773,100a59.073,59.073,0,0,1-14.317-2.4A60.2,60.2,0,0,1,13.2,92.028,51.192,51.192,0,0,1,0,81.25,193.951,193.951,0,0,1,4.1,51.295a155.146,155.146,0,0,1,6.34-21.5c4.317-11.379,8.336-17.24,8.375-17.3a61.4,61.4,0,0,1,9-5.623,68.175,68.175,0,0,1,9.946-4.218A56.42,56.42,0,0,1,50.182,0l1.53,3.053C37.371,6.273,28.935,12.5,21.955,18.75a125.342,125.342,0,0,1,20.1-8.671A80.964,80.964,0,0,1,54.225,7.295,98.617,98.617,0,0,1,69,6.25,98.593,98.593,0,0,1,83.775,7.295a81.005,81.005,0,0,1,12.174,2.785c7.264,2.261,13.4,5.264,20.1,8.671-7.082-6.341-14.208-11.9-29.758-15.7L87.818,0A50.934,50.934,0,0,1,99.882,2.494a68.27,68.27,0,0,1,9.985,4.236,66.46,66.46,0,0,1,9.314,5.77c.04.058,4.071,5.948,8.375,17.3a155.145,155.145,0,0,1,6.34,21.5A193.981,193.981,0,0,1,138,81.25a51.189,51.189,0,0,1-13.2,10.778A60.241,60.241,0,0,1,111.545,97.6,59.487,59.487,0,0,1,97.229,100ZM89.386,43.75c-6.053,0-10.977,5.608-10.977,12.5s4.924,12.5,10.977,12.5,10.977-5.608,10.977-12.5S95.439,43.75,89.386,43.75Zm-40.773,0c-6.053,0-10.977,5.608-10.977,12.5s4.924,12.5,10.977,12.5,10.977-5.608,10.977-12.5S54.666,43.75,48.614,43.75Z" transform="translate(97 62)" fill="#d3331a"/>
      </g>
    </g>
  </g>
</svg>
