<?xml version="1.0" encoding="UTF-8"?>
<svg width="150px" height="32px" viewBox="0 0 150 32" version="1.1" xmlns="http://www.w3.org/2000/svg" xmlns:xlink="http://www.w3.org/1999/xlink">
    <!-- Generator: Sketch 61.1 (89650) - https://sketch.com -->
    <title>Group Copy 2</title>
    <desc>Created with Sketch.</desc>
    <g id="Page-1" stroke="none" stroke-width="1" fill="none" fill-rule="evenodd">
        <g id="Artboard" transform="translate(-483.000000, -193.000000)" fill="#111111" fill-rule="nonzero">
            <g id="Group-Copy-2" transform="translate(483.000000, 193.000000)">
                <g id="Group-Copy">
                    <path d="M51.4703958,30.0080014 C52.971883,30.0080014 54.2728875,29.7435349 55.3734094,29.214602 C56.4739312,28.685669 57.3185178,27.9157302 57.907169,26.9047857 C58.4958202,25.8938412 58.7901458,24.6973436 58.7901458,23.3152929 L58.7901458,23.3152929 L58.7901458,11.1199751 L54.298481,11.1199751 L54.298481,23.2896994 C54.298481,24.4414083 54.0596081,25.2731981 53.5818621,25.7850687 C53.1041162,26.2969393 52.4002941,26.5528747 51.4703958,26.5528747 C49.6276615,26.5528747 48.6807008,25.533399 48.6295138,23.4944476 L48.6295138,23.4944476 L48.6295138,11.1199751 L44.1122555,11.1199751 L44.1122555,23.4048703 C44.137849,25.4523528 44.8032808,27.0647453 46.1085509,28.2420478 C47.413821,29.4193502 49.2011027,30.0080014 51.4703958,30.0080014 Z M66.0843023,29.7520661 L66.0843023,18.1581963 L72.6874335,29.7520661 L77.1535047,29.7520661 L77.1535047,11.1199751 L72.6746367,11.1199751 L72.6746367,22.7138449 L66.0843023,11.1199751 L61.5926375,11.1199751 L61.5926375,29.7520661 L66.0843023,29.7520661 Z M84.4860516,29.7520661 L84.4860516,22.329942 L91.729021,22.329942 L91.729021,18.8748152 L84.4860516,18.8748152 L84.4860516,14.5878986 L92.4584366,14.5878986 L92.4584366,11.1199751 L79.9943868,11.1199751 L79.9943868,29.7520661 L84.4860516,29.7520661 Z M101.97923,30.0080014 C103.566029,30.0080014 104.980072,29.6304968 106.221358,28.8754877 C107.462645,28.1204785 108.420269,27.0434174 109.094232,25.6443043 C109.768195,24.2451912 110.105177,22.6370643 110.105177,20.8199236 L110.105177,20.8199236 L110.105177,19.9625403 C110.096646,18.1709931 109.749,16.5820613 109.06224,15.195745 C108.375481,13.8094287 107.41359,12.7408988 106.17657,11.9901552 C104.939549,11.2394116 103.531905,10.8640398 101.953637,10.8640398 C100.358307,10.8640398 98.9357329,11.2436772 97.6859155,12.0029519 C96.436098,12.7622267 95.4763406,13.8392878 94.8066432,15.2341353 C94.1369458,16.6289828 93.8020971,18.2392425 93.8020971,20.0649144 L93.8020971,20.0649144 L93.8020971,21.1142492 C93.8362218,22.8716717 94.196664,24.4286115 94.8834238,25.7850687 C95.5701835,27.1415259 96.5278082,28.1844623 97.7562977,28.913878 C98.9847872,29.6432936 100.392431,30.0080014 101.97923,30.0080014 Z M101.97923,26.5016876 C100.784866,26.5016876 99.8848264,26.0111449 99.2791128,25.0300595 C98.6733992,24.0489742 98.3705424,22.6455955 98.3705424,20.8199236 L98.3705424,20.8199236 L98.3833392,19.4506696 C98.5113069,16.0723235 99.7014061,14.3831504 101.953637,14.3831504 C103.105346,14.3831504 103.990455,14.8630291 104.608966,15.8227865 C105.227476,16.782544 105.536731,18.1880554 105.536731,20.0393209 L105.536731,20.0393209 L105.536731,20.8967042 C105.5282,22.7053137 105.216812,24.09163 104.602567,25.0556531 C103.988323,26.0196761 103.113877,26.5016876 101.97923,26.5016876 Z M116.913056,29.7520661 L116.913056,23.1745285 L119.344442,23.1745285 L122.63321,29.7520661 L127.444794,29.7520661 L127.444794,29.5601146 L123.554578,22.0484131 C124.672162,21.5194801 125.493288,20.8284548 126.017955,19.975337 C126.542622,19.1222193 126.804956,18.047291 126.804956,16.7505521 C126.804956,14.9590048 126.18218,13.5726886 124.936628,12.5916032 C123.691076,11.6105178 121.963513,11.1199751 119.753938,11.1199751 L119.753938,11.1199751 L112.421391,11.1199751 L112.421391,29.7520661 L116.913056,29.7520661 Z M119.753938,19.706605 L116.913056,19.706605 L116.913056,14.5878986 L119.753938,14.5878986 C120.598525,14.5878986 121.238363,14.8161076 121.673453,15.2725256 C122.108543,15.7289436 122.326088,16.3581179 122.326088,17.1600486 C122.326088,17.9619792 122.110676,18.586888 121.679851,19.0347748 C121.249027,19.4826616 120.607056,19.706605 119.753938,19.706605 L119.753938,19.706605 Z M134.009535,29.7520661 L134.009535,25.4011657 L133.574445,16.48182 L138.091703,29.7520661 L141.060553,29.7520661 L145.565015,16.4946167 L145.129925,25.4011657 L145.129925,29.7520661 L149.634386,29.7520661 L149.634386,11.1199751 L143.72228,11.1199751 L139.576128,24.0830989 L135.417179,11.1199751 L129.51787,11.1199751 L129.51787,29.7520661 L134.009535,29.7520661 Z" id="UNFORM"></path>
                    <g id="noun_Bricks_1763963">
                        <path d="M15.1433171,0.0367660493 C14.9338718,0.0367660493 14.733022,0.120048725 14.5849939,0.268217485 C14.4369659,0.416386246 14.3538979,0.617312212 14.3540809,0.826752407 L14.3540809,6.34973438 C14.3540809,6.78558639 14.7074546,7.13894517 15.1433171,7.13894517 L26.9818473,7.13894517 C27.1912915,7.13912828 27.3922215,7.05606324 27.5403937,6.90804011 C27.6885659,6.76001699 27.7718531,6.55917361 27.7718531,6.34973438 L27.7718531,0.826752407 C27.7720363,0.617178814 27.6888627,0.416136072 27.5406682,0.267945138 C27.3924736,0.119754204 27.191426,0.0365827437 26.9818473,0.0367660493 L15.1433171,0.0367660493 Z M15.9333225,1.61597781 L26.1926115,1.61597781 L26.1926115,5.55974832 L15.9333225,5.55974832 L15.9333225,1.61597781 Z M8.0386578,8.32431919 C7.60279551,8.32431919 7.24942225,8.6776779 7.24942225,9.11352968 L7.24942225,14.6364967 C7.24923923,14.8459368 7.3323071,15.0468627 7.48033502,15.1950314 C7.62836295,15.3432002 7.82921258,15.4264828 8.0386578,15.4264828 L19.877187,15.4264828 C20.0866323,15.4264828 20.2874821,15.3432004 20.4355102,15.1950317 C20.5835382,15.0468629 20.6666062,14.8459369 20.6664231,14.6364967 L20.6664231,9.11352968 C20.6664231,8.67767767 20.3130495,8.32431919 19.877187,8.32431919 L8.0386578,8.32431919 Z M22.2456641,8.32431889 C22.0362199,8.32413578 21.83529,8.40720082 21.6871178,8.55522394 C21.5389455,8.70324707 21.4556584,8.90409044 21.4556584,9.11352968 L21.4556584,14.6364967 C21.4554752,14.8460703 21.5386487,15.0471131 21.6868433,15.195304 C21.8350379,15.3434949 22.0360855,15.4266664 22.2456641,15.4264831 L34.0841944,15.4264831 C34.2936397,15.4264831 34.4944895,15.3432004 34.6425175,15.1950317 C34.7905456,15.0468629 34.8736135,14.8459369 34.8734305,14.6364967 L34.8734305,9.11352968 C34.8734305,8.67767767 34.5200569,8.32431889 34.0841944,8.32431889 L22.2456641,8.32431889 Z M8.8278932,9.90351574 L19.0879526,9.90351574 L19.0879526,13.8472862 L8.8278932,13.8472862 L8.8278932,9.90351574 Z M23.0349,9.90351574 L33.2941889,9.90351574 L33.2941889,13.8472862 L23.0349,13.8472862 L23.0349,9.90351574 Z M0.937081245,16.6118568 C0.502115107,16.6114724 0.148814869,16.9630428 0.147075205,17.3979952 L0.147075205,22.9240496 C0.147075205,23.1334889 0.230362133,23.3343324 0.378534487,23.4823555 C0.52670684,23.6303787 0.727636933,23.7134436 0.937081245,23.7132604 L12.775611,23.7132604 C13.2114736,23.7132604 13.5648469,23.3599016 13.5648469,22.9240496 L13.5648469,17.3979952 C13.5631082,16.9633435 13.2102767,16.6118568 12.775611,16.6118568 L0.937081245,16.6118568 Z M15.1433171,16.6118568 C14.7086514,16.6118568 14.3558199,16.9633435 14.3540812,17.3979952 L14.3540812,22.9240496 C14.3540812,23.3599016 14.7074546,23.7132604 15.1433171,23.7132604 L26.9818473,23.7132604 C27.1912915,23.7134435 27.3922215,23.6303784 27.5403937,23.4823553 C27.6885659,23.3343322 27.7718528,23.1334888 27.7718528,22.9240496 L27.7718528,17.3979952 C27.7701131,16.9630431 27.4168132,16.6114727 26.9818473,16.6118568 L15.1433171,16.6118568 Z M1.72631649,18.1879812 L11.9856053,18.1879812 L11.9856053,22.1348242 L1.72631649,22.1348242 L1.72631649,18.1879812 Z M15.9333225,18.1879812 L26.1926115,18.1879812 L26.1926115,22.1348242 L15.9333225,22.1348242 L15.9333225,18.1879812 Z M8.0386578,24.8963077 C7.60278969,24.8963077 7.24942255,25.2496755 7.24942255,25.6855331 L7.24942255,31.2115875 C7.24942255,31.6474393 7.60279551,32.000798 8.0386578,32.000798 L19.877187,32.000798 C20.3130495,32.000798 20.6664228,31.6474395 20.6664228,31.2115875 L20.6664228,25.6855331 C20.6664228,25.2496753 20.3130553,24.8963077 19.877187,24.8963077 L8.0386578,24.8963077 Z M22.2456641,24.8963074 C22.0362173,24.8961243 21.8352851,24.9791914 21.6871125,25.1272177 C21.5389398,25.2752441 21.4556587,25.4760913 21.4556587,25.6855331 L21.4556587,31.2115875 C21.4556587,31.4210267 21.5389455,31.6218701 21.6871178,31.7698932 C21.83529,31.9179164 22.0362199,32.0009814 22.2456641,32.0007983 L34.0841944,32.0007983 C34.5200569,32.0007983 34.8734302,31.6474395 34.8734302,31.2115875 L34.8734302,25.6855331 C34.8734302,25.2496753 34.5200627,24.8963074 34.0841944,24.8963074 L22.2456641,24.8963074 Z M8.8278932,26.4747436 L19.0879526,26.4747436 L19.0879526,30.422377 L8.8278932,30.422377 L8.8278932,26.4747436 Z M23.0349,26.4747436 L33.2941889,26.4747436 L33.2941889,30.422377 L23.0349,30.422377 L23.0349,26.4747436 Z" id="Shape"></path>
                    </g>
                </g>
            </g>
        </g>
    </g>
</svg>