<?xml version="1.0" encoding="UTF-8"?>
<svg width="115px" height="36px" viewBox="0 0 115 36" version="1.1" xmlns="http://www.w3.org/2000/svg" xmlns:xlink="http://www.w3.org/1999/xlink">
    <!-- Generator: Sketch 61.1 (89650) - https://sketch.com -->
    <title>unform</title>
    <desc>Created with Sketch.</desc>
    <g id="Page-1" stroke="none" stroke-width="1" fill="none" fill-rule="evenodd">
        <g id="Artboard" transform="translate(-343.000000, -188.000000)" fill="#7159C1" fill-rule="nonzero">
            <path d="M354.2335,223.226891 L354.773247,223.159664 C355.076855,223.092437 355.481666,223.058824 355.886477,223.02521 C358.180405,222.722689 360.643004,220.638655 361.351423,218.588235 L361.385157,218.588235 C361.89117,217.210084 362.228513,215.89916 362.397184,214.621849 C362.464652,214.151261 362.532121,213.579832 362.565855,213.07563 L362.667058,212.033613 C362.700792,211.663866 362.734526,211.294118 362.801995,211.02521 L362.936932,210.151261 C363.105603,208.773109 363.105603,207.193277 363.105603,205.714286 C363.105603,204.168067 363.038134,202.554622 362.970666,201.008403 C362.869463,198.756303 362.633324,196.369748 362.36345,194.117647 L362.295981,194.084034 C362.262247,193.680672 362.262247,193.277311 362.12731,192.840336 C361.958639,192.268908 361.722499,191.831933 361.385157,191.495798 L360.035788,190.184874 C359.563508,189.512605 358.855089,189.07563 357.977999,188.941176 C357.606923,188.87395 356.999707,188.806723 356.594896,188.806723 C356.021414,188.773109 355.144324,188.739496 354.570842,188.773109 C352.782928,188.87395 352.074509,189.714286 351.838369,190.756303 L351.602229,190.521008 C351.231153,189.815126 350.522734,189.344538 349.544441,189.142857 L348.431211,189.042017 L347.958932,189.042017 C347.790261,189.042017 347.62159,189.008403 347.486653,189.008403 C347.183045,189.008403 346.879437,189.008403 346.50836,188.97479 C343.978293,188.773109 343.033734,190.016807 343.033734,192.067227 C343.033734,192.369748 343,192.672269 343,192.941176 L343,193.781513 C343,194.689076 343.033734,195.89916 343.101203,196.806723 C343.134937,197.310924 343.101203,197.714286 343.101203,198.184874 L343.101203,200.705882 C343.101203,200.840336 343.067468,200.941176 343.067468,201.07563 L343.067468,201.445378 C343.101203,202.252101 343.134937,203.058824 343.134937,203.831933 L343.269874,206.689076 C343.303608,207.327731 343.337342,207.932773 343.337342,208.571429 C343.303608,209.915966 343.371077,211.529412 343.607216,212.87395 L343.607216,212.840336 C343.910824,214.655462 344.51804,216.403361 345.63127,217.915966 C346.204752,218.689076 346.879437,219.394958 347.62159,219.966387 L348.431211,220.739496 C349.476973,221.815126 350.792608,222.588235 352.344383,223.02521 C352.816662,223.12605 353.660018,223.226891 354.2335,223.226891 Z M351.028747,219.798319 C349.308302,219.327731 348.026401,218.319328 346.980639,216.907563 C346.036081,215.630252 345.530067,214.151261 345.260194,212.605042 C345.057788,211.294118 344.956586,209.983193 345.024054,208.638655 C345.024054,208.190476 345.009061,207.742297 344.98907,207.294118 L344.821649,203.798319 C344.821649,203.02521 344.787914,202.218487 344.75418,201.411765 C344.75418,200.941176 344.787914,200.504202 344.787914,200.067227 C344.787914,198.92437 344.855383,197.815126 344.787914,196.705882 C344.686712,195.159664 344.686712,193.613445 344.720446,192.067227 C344.720446,191.12605 345.158991,190.554622 346.373423,190.655462 C346.980639,190.722689 347.62159,190.689076 348.26254,190.722689 L349.308302,190.823529 C349.949252,190.957983 350.286594,191.327731 350.354063,191.966387 L350.354063,192.571429 C350.286594,193.983193 350.354063,195.361345 350.455265,196.739496 L350.455265,197.411765 C350.489,198.92437 350.489,200.403361 350.556468,201.915966 C350.590202,202.890756 350.590202,203.831933 350.556468,204.806723 C350.522734,206.016807 350.556468,207.226891 350.590202,208.436975 C350.590202,209.378151 350.623937,210.319328 350.657671,211.226891 C350.657671,211.966387 350.691405,212.705882 350.893811,213.445378 C350.995013,213.714286 351.096216,213.983193 351.231153,214.252101 C351.298621,214.386555 351.399824,214.487395 351.501027,214.621849 C352.074509,215.159664 352.749193,215.092437 353.12027,214.386555 C353.390144,213.94958 353.491346,213.445378 353.592549,212.941176 C353.99736,210.352941 354.368436,207.764706 354.300968,205.109244 L354.300968,203.428571 L354.334702,203.428571 L354.334702,201.680672 C354.300968,200.638655 354.267234,199.596639 354.199765,198.554622 C354.064828,197.042017 353.896157,195.563025 353.727486,194.084034 L353.525081,192.470588 L353.457612,191.731092 C353.457612,191.092437 353.660018,190.487395 354.672045,190.453782 C355.279261,190.420168 355.886477,190.453782 356.493693,190.487395 C356.898504,190.487395 357.269581,190.521008 357.640657,190.588235 C358.349076,190.655462 358.753887,190.991597 358.922558,191.663866 C359.023761,191.966387 359.057495,192.302521 359.091229,192.638655 C359.361103,194.890756 359.597243,197.142857 359.698445,199.394958 C359.765914,200.941176 359.833382,202.487395 359.833382,204.033613 C359.833382,205.445378 359.833382,206.857143 359.664711,208.268908 C359.597243,208.907563 359.462306,209.546218 359.394837,210.184874 C359.293634,211.02521 359.2599,211.865546 359.124963,212.739496 C358.956292,213.94958 358.652684,215.159664 358.214139,216.369748 C357.674391,217.94958 355.819009,219.529412 354.031094,219.764706 C353.491346,219.798319 352.985333,219.89916 352.479319,219.966387 C351.973306,220 351.501027,219.89916 351.028747,219.798319 Z M378.286008,220.168067 L375.182458,220.10084 L374.980053,220.10084 C374.339102,220.033613 373.866823,219.731092 373.664418,219.12605 C373.563215,218.789916 373.462012,218.420168 373.394544,218.084034 C372.955999,215.294118 372.348783,212.537815 371.741566,209.781513 C371.505427,208.739496 371.201819,207.697479 370.931945,206.655462 L369.312702,200.302521 C369.177765,199.731092 368.975359,199.226891 368.806688,198.689076 C368.73922,198.487395 368.638017,198.151261 368.368143,198.218487 C368.165738,198.285714 368.165738,198.521008 368.132004,198.722689 C367.963332,199.428571 367.963332,200.168067 368.030801,200.87395 C368.098269,201.781513 367.997067,202.655462 367.997067,203.563025 L367.997067,209.815126 C368.030801,211.058824 368.132004,212.302521 368.165738,213.579832 C368.165738,214.823529 368.26694,216.067227 368.401877,217.310924 C368.401877,217.546218 368.469346,217.747899 368.469346,217.983193 C368.50308,218.151261 368.536814,218.352941 368.536814,218.521008 C368.604283,219.159664 368.26694,219.798319 367.356116,219.831933 L365.736873,219.966387 L365.129657,219.966387 C364.522441,219.89916 364.151364,219.563025 364.083896,218.92437 C364.050161,218.823529 364.050161,218.722689 364.050161,218.588235 C364.050161,217.042017 363.982693,215.462185 364.016427,213.882353 C364.016427,211.798319 363.948959,209.680672 363.948959,207.596639 C363.982693,205.008403 363.948959,202.420168 363.948959,199.865546 C363.948959,198.285714 363.88149,196.739496 363.915224,195.159664 C363.915224,193.915966 363.88149,192.638655 364.050161,191.394958 C364.185098,190.521008 364.589909,190.117647 365.466999,189.983193 C366.276621,189.848739 367.052508,189.915966 367.828395,189.983193 C368.604283,190.05042 369.346436,190.184874 370.054855,190.386555 L370.560868,190.588235 C371.033148,190.823529 371.37049,191.159664 371.539161,191.663866 C371.60663,191.831933 371.674098,192 371.707832,192.168067 C372.180111,193.915966 372.584922,195.663866 373.057202,197.445378 L374.507774,203.159664 L375.013787,205.042017 C375.081256,205.277311 375.148724,205.512605 375.249927,205.714286 C375.283661,205.815126 375.384864,206.05042 375.486066,206.016807 C375.654737,205.94958 375.654737,205.815126 375.688472,205.714286 C375.722206,205.445378 375.789674,205.142857 375.789674,204.87395 C375.857143,203.596639 375.924611,202.352941 375.924611,201.109244 C375.924611,199.966387 375.857143,198.823529 375.823409,197.680672 C375.823409,197.042017 375.823409,196.436975 375.789674,195.798319 C375.75594,194.588235 375.722206,193.378151 375.722206,192.168067 C375.688472,191.89916 375.75594,191.630252 375.789674,191.394958 C375.890877,190.991597 376.160751,190.756303 376.498093,190.621849 C377.037841,190.386555 377.577589,190.319328 378.151071,190.420168 C378.589616,190.487395 378.926958,190.756303 379.095629,191.193277 L379.196832,191.630252 C379.399237,192.739496 379.601643,193.848739 379.770314,194.957983 C379.871517,195.529412 379.938985,196.10084 379.972719,196.672269 C380.107656,198.655462 380.208859,200.605042 380.310062,202.588235 C380.37753,203.89916 380.478733,205.210084 380.478733,206.554622 C380.478733,207.663866 380.411264,208.773109 380.37753,209.882353 C380.343796,210.588235 380.276327,211.294118 380.276327,211.966387 L380.107656,218.016807 C380.107656,218.352941 380.073922,218.689076 380.006454,219.02521 C379.871517,219.663866 379.466706,220.033613 378.825755,220.10084 C378.62335,220.134454 378.454679,220.168067 378.286008,220.168067 Z M380.444999,190.151261 C379.972719,189.378151 379.2643,188.907563 378.420945,188.773109 C377.577589,188.638655 376.734233,188.705882 375.890877,189.042017 C375.148724,189.344538 374.339102,190.05042 374.102963,191.12605 L374.102963,191.260504 C374.069229,191.361345 374.035494,191.529412 374.035494,191.663866 L373.934292,191.563025 L372.821062,190.487395 C372.416251,189.882353 371.809035,189.344538 371.168084,189.008403 L370.695805,188.840336 C369.683778,188.537815 368.772954,188.369748 367.963332,188.302521 C367.524787,188.268908 366.917571,188.235294 366.479026,188.235294 C366.040481,188.235294 365.63567,188.235294 365.129657,188.336134 L365.163391,188.336134 C363.476679,188.638655 362.667058,189.445378 362.36345,191.193277 C362.247789,192.115246 362.231267,193.111302 362.228906,194.117941 L362.228513,195.159664 C362.194779,195.731092 362.228513,196.403361 362.228513,197.042017 L362.228513,198.92437 C362.228513,199.226891 362.262247,199.563025 362.262247,199.865546 L362.262931,208.402149 C362.264756,209.201195 362.271447,210.163484 362.295981,210.823529 L362.295981,212.369748 C362.295981,212.87395 362.329715,213.378151 362.329715,213.882353 C362.295981,214.453782 362.329715,215.12605 362.329715,215.798319 L362.329715,216.739496 C362.329715,217.07563 362.36345,217.378151 362.36345,217.680672 L362.36345,218.588235 C362.36345,218.756303 362.36345,219.058824 362.397184,219.226891 C362.532121,220.235294 363.0044,220.87395 363.712819,221.277311 L364.893517,222.453782 C365.332062,222.890756 365.905544,223.12605 366.647697,223.226891 L367.457319,223.226891 L369.110296,223.092437 L369.144031,223.092437 C371.201819,222.991597 371.943972,221.512605 371.809035,220.033613 C371.775301,219.89916 371.741566,219.731092 371.741566,219.596639 C371.741566,219.495798 371.707832,219.12605 371.707832,219.02521 C371.674098,218.92437 371.674098,218.890756 371.674098,218.823529 C371.60663,218.151261 371.505427,217.478992 371.471693,216.806723 L371.741566,218.453782 L372.045175,219.663866 C372.281314,220.436975 372.753593,221.008403 373.36081,221.344538 L374.541508,222.521008 C375.013787,222.991597 375.688472,223.294118 376.498093,223.361345 L376.86917,223.361345 L379.972719,223.428571 C380.208859,223.428571 380.444999,223.394958 380.647404,223.361345 C382.165444,223.226891 382.941332,222.386555 383.24494,221.042017 C383.346143,220.605042 383.379877,220.134454 383.379877,219.697479 L383.548548,213.680672 C383.548548,213.243697 383.582282,212.806723 383.616016,212.336134 C383.616016,212.10084 383.649751,211.798319 383.649751,211.563025 C383.649751,211.193277 383.683485,210.890756 383.683485,210.521008 C383.717219,209.781513 383.750953,208.97479 383.750953,208.235294 C383.750953,207.226891 383.717219,206.084034 383.649751,205.109244 C383.616016,204.773109 383.582282,204.470588 383.582282,204.235294 C383.481079,202.285714 383.379877,200.201681 383.24494,198.252101 C383.211206,197.781513 383.143737,197.008403 383.0088,196.369748 C382.840129,195.260504 382.637724,194.117647 382.435318,193.008403 L382.300381,192.436975 C382.13171,191.966387 381.895571,191.596639 381.591962,191.294118 L381.457026,191.193277 C381.457026,191.159664 381.457026,191.159664 381.423291,191.159664 L380.444999,190.151261 Z M387.832796,223.596639 C388.473746,223.563025 389.350836,223.495798 389.991786,223.428571 C390.329129,223.428571 390.632737,223.394958 390.902611,223.226891 C392.01584,222.823529 392.623057,222.05042 392.690525,220.705882 L392.656791,220.672269 C392.690525,220.504202 392.690525,220.302521 392.690525,220.201681 L392.690525,219.932773 L392.454385,214.386555 C392.386917,212.705882 392.319449,210.957983 392.184512,209.277311 L392.184512,209.243697 L393.635084,209.243697 C394.141097,209.243697 394.613376,209.243697 395.018187,209.210084 C396.569962,209.042017 397.480786,208.201681 397.649457,206.655462 C397.683192,206.352941 397.683192,205.882353 397.683192,205.512605 C397.683192,205.142857 397.683192,204.672269 397.649457,204.369748 C397.548255,203.563025 397.312115,202.991597 396.907304,202.588235 L395.591669,201.310924 C395.186858,200.605042 394.512174,200.235294 393.702552,200.033613 C393.533881,199.966387 393.398944,199.966387 393.196539,199.966387 L393.061602,199.966387 C392.690525,199.932773 392.353183,199.865546 392.049575,199.865546 L392.049575,199.226891 C392.049575,199.02521 392.01584,198.823529 392.01584,198.621849 L392.01584,197.983193 L392.386917,197.915966 L392.994133,197.915966 C393.500147,197.915966 394.073629,197.94958 394.579642,197.915966 C395.861543,197.848739 396.806101,197.109244 397.210912,195.932773 C397.312115,195.596639 397.379583,195.226891 397.379583,194.857143 C397.413318,194.453782 397.413318,193.747899 397.379583,193.310924 C397.379583,193.210084 397.312115,192.941176 397.278381,192.773109 C397.143444,192.067227 396.839836,191.495798 396.435025,191.092437 L395.254327,189.94958 C394.815782,189.176471 394.073629,188.705882 393.196539,188.571429 C392.521854,188.436975 391.712232,188.403361 390.801408,188.470588 C390.295395,188.537815 389.688178,188.571429 388.979759,188.571429 L388.473746,188.571429 C388.305075,188.571429 388.136404,188.537815 387.967732,188.537815 C387.495453,188.537815 386.652097,188.537815 386.11235,188.571429 C383.919625,188.672269 383.042534,189.714286 382.907598,191.731092 C382.883502,191.995198 382.876617,192.396501 382.87465,192.739006 L382.87465,193.479482 C382.876617,193.821986 382.883502,194.223289 382.907598,194.487395 L382.907598,195.12605 C382.907598,195.327731 382.941332,195.529412 382.941332,195.731092 C382.975066,196.605042 383.0088,197.445378 383.0088,198.352941 L383.0088,199.798319 C383.0088,200.268908 383.042534,200.773109 383.042534,201.243697 C383.042534,203.12605 383.076269,205.07563 383.110003,207.092437 C383.110003,207.394958 383.143737,207.697479 383.143737,207.966387 L383.143737,210.386555 C383.143737,210.722689 383.110003,211.058824 383.110003,211.361345 L383.110418,215.239651 C383.111799,216.423848 383.117788,217.776341 383.143737,219.327731 C383.177471,219.596639 383.211206,219.831933 383.346143,220.10084 C383.548548,220.739496 384.020827,221.310924 384.594309,221.647059 L385.741273,222.789916 C386.011147,223.092437 386.382224,223.294118 386.7533,223.428571 C387.124377,223.563025 387.461719,223.596639 387.832796,223.596639 Z M386.11235,220.336134 C385.943678,220.336134 385.741273,220.302521 385.572602,220.235294 C385.268994,220.134454 385.032854,219.89916 384.965386,219.596639 C384.897917,219.428571 384.864183,219.226891 384.830449,219.058824 C384.796715,217.042017 384.796715,215.630252 384.796715,214.218487 C384.796715,212.941176 384.830449,211.663866 384.830449,210.386555 C384.830449,209.310924 384.796715,208.201681 384.796715,207.092437 C384.729246,204 384.729246,201.176471 384.695512,198.352941 C384.695512,197.008403 384.628043,195.697479 384.594309,194.352941 C384.560575,193.512605 384.560575,192.672269 384.594309,191.865546 C384.628043,190.756303 385.032854,190.285714 386.213552,190.252101 C386.787034,190.218487 387.360516,190.218487 387.967732,190.218487 C388.979759,190.252101 389.991786,190.252101 391.003813,190.117647 C391.678498,190.05042 392.353183,190.117647 392.994133,190.252101 C393.567615,190.319328 393.938692,190.655462 394.039894,191.226891 C394.073629,191.428571 394.107363,191.596639 394.107363,191.764706 C394.141097,192.201681 394.141097,192.605042 394.107363,193.042017 C394.107363,193.277311 394.073629,193.546218 394.00616,193.781513 C393.837489,194.285714 393.398944,194.621849 392.791728,194.655462 C392.049575,194.689076 391.307422,194.655462 390.565268,194.655462 C390.26166,194.689076 389.924318,194.722689 389.62071,194.789916 C389.215899,194.890756 388.912291,195.159664 388.844823,195.596639 C388.811088,195.831933 388.74362,196.10084 388.74362,196.336134 C388.74362,196.739496 388.777354,197.142857 388.777354,197.546218 C388.777354,198.319328 388.811088,199.058824 388.811088,199.831933 L388.878557,200.638655 C388.946025,201.042017 389.148431,201.344538 389.586976,201.411765 C389.823115,201.478992 390.059255,201.512605 390.329129,201.512605 C391.206219,201.512605 392.117043,201.512605 392.994133,201.647059 C393.095336,201.647059 393.196539,201.647059 393.264007,201.680672 C393.904957,201.815126 394.309768,202.084034 394.377237,202.857143 C394.444705,203.495798 394.444705,204.134454 394.377237,204.806723 C394.309768,205.512605 393.904957,205.882353 393.196539,205.94958 C392.656791,206.016807 392.083309,205.983193 391.509827,205.983193 C391.037548,205.983193 390.565268,205.94958 390.092989,205.94958 L389.958052,205.94958 C389.317102,206.016807 388.946025,206.352941 388.912291,207.02521 C388.878557,207.260504 388.878557,207.495798 388.912291,207.764706 C389.047228,209.445378 389.114696,211.092437 389.182165,212.773109 L389.418304,218.285714 C389.418304,218.521008 389.452039,218.722689 389.418304,218.957983 C389.38457,219.630252 389.114696,219.966387 388.440012,220.134454 C388.406278,220.168067 388.372543,220.168067 388.305075,220.168067 C387.562922,220.235294 386.854503,220.302521 386.11235,220.336134 Z M406.555295,223.428571 C407.297448,223.428571 408.005867,223.361345 408.714286,223.193277 C411.008214,222.588235 412.694925,221.176471 413.673218,219.092437 L413.639484,219.092437 C414.145497,218.084034 414.381637,217.109244 414.516574,216.067227 L414.516574,215.89916 C414.584042,215.260504 414.651511,214.521008 414.685245,213.882353 C414.718979,213.142857 414.718979,212.268908 414.718979,211.529412 L414.617776,209.848739 C414.584042,209.344538 414.550308,208.907563 414.550308,208.403361 C414.516574,206.453782 414.415371,204.268908 414.280434,202.319328 C414.179231,200.638655 413.976826,198.823529 413.808155,197.142857 C413.639484,196.10084 413.437078,195.058824 412.964799,194.016807 L412.998533,194.05042 C412.627457,193.176471 412.121443,192.436975 411.514227,191.831933 L410.535934,190.857143 C409.591376,189.613445 408.208272,188.705882 406.589029,188.302521 C405.644471,188.067227 404.632444,188.067227 403.687885,188.067227 C402.979466,188.067227 402.169845,188.201681 401.49516,188.403361 C399.606043,189.008403 398.256674,190.386555 397.413318,192.10084 C396.704899,193.579832 396.333822,195.12605 396.333822,196.773109 C396.333822,196.87395 396.300088,196.97479 396.300088,197.07563 L396.300088,197.815126 L396.198885,199.361345 L396.198885,199.932773 C396.198885,200.403361 396.198885,201.008403 396.165151,201.445378 C396.076599,202.151261 396.06553,203.063025 396.064146,203.910452 L396.063948,207.563025 C396.063948,207.89916 396.063948,208.436975 396.097683,208.773109 C396.165151,209.983193 396.23262,211.260504 396.333822,212.470588 C396.401291,213.310924 396.468759,214.252101 396.671165,215.12605 C397.075975,217.243697 398.155471,218.857143 399.707246,220.067227 L399.74098,220.10084 L400.61807,220.941176 C401.461426,221.781513 402.507187,222.453782 403.721619,222.991597 C403.89029,223.092437 404.092696,223.159664 404.564975,223.226891 C405.172191,223.361345 405.914344,223.428571 406.555295,223.428571 Z M403.181872,220 C402.979466,219.966387 402.810795,219.89916 402.642124,219.831933 C400.38193,218.823529 398.762687,217.277311 398.324142,214.756303 C398.155471,213.94958 398.088002,213.142857 398.020534,212.336134 C397.919331,211.092437 397.851863,209.848739 397.784394,208.605042 C397.75066,207.89916 397.784394,207.193277 397.75066,206.521008 L397.75066,205.647059 C397.784394,204.268908 397.683192,202.92437 397.851863,201.546218 C397.919331,200.840336 397.885597,200.134454 397.885597,199.394958 L397.9868,197.915966 C397.9868,197.546218 398.020534,197.176471 398.020534,196.773109 C398.020534,195.394958 398.324142,194.084034 398.931358,192.840336 C399.606043,191.495798 400.584336,190.487395 402.034908,190.016807 C402.574655,189.815126 403.114403,189.747899 403.687885,189.747899 C404.531241,189.747899 405.374597,189.747899 406.217952,189.94958 C407.972133,190.319328 409.152831,191.394958 409.86125,193.008403 C410.26606,193.848739 410.434732,194.756303 410.569669,195.663866 C410.73834,197.344538 410.907011,199.058824 411.008214,200.739496 C411.14315,202.722689 411.244353,204.739496 411.278087,206.722689 C411.311822,207.764706 411.413024,208.806723 411.446759,209.882353 C411.446759,210.621849 411.446759,211.394958 411.413024,212.134454 C411.37929,212.840336 411.311822,213.512605 411.244353,214.218487 C411.14315,215.092437 410.940745,215.932773 410.535934,216.739496 C409.760047,218.386555 408.444412,219.495798 406.656498,219.966387 C405.509534,220.235294 404.328835,220.235294 403.181872,220 Z M404.902317,214.016807 C405.104723,213.882353 405.340862,213.714286 405.475799,213.546218 C405.644471,213.310924 405.779407,213.042017 405.88061,212.773109 C406.049281,212.436975 406.11675,212.067227 406.11675,211.663866 C406.11675,210.420168 406.11675,209.176471 406.083016,207.89916 L405.846876,200.336134 C405.779407,199.294118 405.678205,198.285714 405.543268,197.243697 C405.509534,196.806723 405.340862,196.403361 405.205925,195.966387 C405.104723,195.630252 404.936052,195.361345 404.666178,195.12605 C404.36257,194.890756 404.025227,194.722689 403.620417,194.789916 C403.215606,194.890756 402.911998,195.092437 402.743326,195.462185 C402.60839,195.731092 402.507187,196 402.473453,196.302521 C402.405984,196.840336 402.338516,197.411765 402.338516,197.94958 C402.304781,199.697479 402.203579,201.411765 402.271047,203.12605 C402.338516,204.268908 402.304781,205.411765 402.338516,206.554622 C402.338516,206.890756 402.37225,207.226891 402.405984,207.563025 C402.473453,208.168067 402.540921,208.806723 402.574655,209.411765 L402.642124,211.294118 C402.675858,212.067227 402.810795,212.773109 403.24934,213.411765 C403.418011,213.647059 403.620417,213.848739 403.89029,213.983193 C404.227633,214.184874 404.564975,214.184874 404.902317,214.016807 Z M427.065708,224 C427.436785,224 427.672925,223.966387 427.942798,223.89916 C428.313875,223.798319 428.853623,223.731092 429.325902,223.663866 L430.034321,223.596639 L430.540334,223.462185 C431.754767,223.02521 432.328249,222.352941 432.361983,221.344538 C432.395717,220.806723 432.294515,220.235294 432.092109,219.764706 L432.024641,219.731092 L430.574069,215.361345 C430.236726,214.386555 429.933118,213.445378 429.764447,212.504202 C429.595776,211.260504 429.292168,210.117647 428.98856,209.042017 L428.51628,207.529412 L429.157231,206.857143 L429.123497,206.857143 C430.5066,205.378151 431.451159,203.663866 431.687298,201.579832 C431.754767,201.042017 431.788501,200.403361 431.788501,199.731092 C431.788501,198.92437 431.721033,198.151261 431.653564,197.478992 C431.61983,197.109244 431.518627,196.605042 431.38369,196.10084 C431.046348,194.823529 430.405397,193.781513 429.663244,192.840336 C429.460839,192.571429 429.258434,192.369748 429.022294,192.134454 L428.246407,191.394958 L428.044001,191.092437 C426.660898,189.378151 424.839249,188.336134 422.680258,188.10084 C421.7357,188 420.723673,188 419.74538,188 C419.003227,188 418.227339,188.10084 417.518921,188.235294 C417.012907,188.268908 416.608096,188.369748 416.270754,188.504202 C415.090056,188.907563 414.381637,189.815126 414.212966,190.957983 C414.187665,191.084034 414.18134,191.228992 414.179759,191.350315 L414.179231,191.630252 L414.078029,194.420168 C414.078029,195.092437 414.044295,195.89916 414.01056,196.537815 C413.909358,198.016807 413.808155,199.596639 413.808155,201.07563 C413.808155,201.546218 413.841889,202.453782 413.875623,203.02521 L413.875623,203.159664 C413.875623,203.226891 413.841889,203.294118 413.841889,203.327731 L413.841889,205.142857 C413.841889,205.344538 413.808155,205.546218 413.808155,205.747899 L413.808942,206.118137 C413.810909,206.460641 413.817793,206.861945 413.841889,207.12605 L413.841889,207.663866 C413.841889,207.831933 413.875623,208 413.875623,208.201681 C413.875623,208.336134 413.841889,208.470588 413.841889,208.605042 L413.841889,209.747899 C413.841889,210.151261 413.875623,210.453782 413.875623,210.722689 L413.875623,211.226891 C413.875623,212.033613 413.909358,212.806723 413.909358,213.176471 C413.909358,214.487395 413.943092,216.537815 413.976826,217.915966 L413.976826,218.554622 C413.976826,218.689076 414.01056,218.823529 414.01056,218.92437 L414.01056,219.226891 L414.078029,219.663866 C414.280434,220.672269 414.718979,221.445378 415.494867,221.848739 L416.675565,223.02521 C417.11411,223.462185 417.75506,223.731092 418.530947,223.731092 C419.542974,223.731092 420.453799,223.630252 421.364623,223.394958 C422.410384,223.092437 423.085069,222.521008 423.388677,221.613445 C423.557348,221.781513 423.759754,221.94958 423.962159,222.05042 L425.176591,223.260504 C425.648871,223.731092 426.289821,223.966387 427.065708,224 Z M425.446465,220.739496 C424.974186,220.705882 424.603109,220.537815 424.400704,220.10084 C424.265767,219.865546 424.198299,219.596639 424.13083,219.361345 C423.624817,217.378151 423.152537,215.394958 422.680258,213.411765 C422.275447,211.630252 421.803168,209.848739 421.297155,208.10084 L421.094749,207.529412 C420.993546,207.394958 420.85861,207.226891 420.723673,207.12605 C420.555001,206.991597 420.352596,207.02521 420.183925,207.193277 C419.98152,207.361345 419.914051,207.630252 419.914051,207.89916 C419.914051,208.537815 419.880317,209.210084 419.914051,209.848739 C419.947785,211.563025 420.015254,213.310924 420.082722,215.02521 C420.116456,215.966387 420.217659,216.941176 420.285128,217.882353 C420.318862,218.218487 420.318862,218.554622 420.318862,218.890756 C420.285128,219.596639 419.947785,220 419.306835,220.168067 C418.497213,220.369748 417.687592,220.470588 416.844236,220.470588 C416.23702,220.470588 415.865943,220.134454 415.76474,219.563025 L415.697272,219.226891 C415.697272,218.789916 415.663538,218.319328 415.663538,217.882353 C415.596069,215.529412 415.596069,213.176471 415.562335,210.823529 L415.596069,210.823529 C415.562335,210.487395 415.528601,210.117647 415.528601,209.747899 C415.528601,209.243697 415.562335,208.739496 415.562335,208.201681 C415.562335,207.394958 415.494867,206.554622 415.494867,205.747899 C415.494867,204.97479 415.528601,204.201681 415.528601,203.462185 C415.528601,203.260504 415.562335,203.092437 415.562335,202.92437 C415.427398,200.806723 415.562335,198.722689 415.697272,196.605042 C415.731006,195.89916 415.76474,195.193277 415.76474,194.453782 L415.865943,191.697479 C415.865943,191.563025 415.865943,191.428571 415.899677,191.294118 C415.967146,190.722689 416.23702,190.285714 416.810502,190.117647 C417.11411,190.016807 417.417718,189.94958 417.721326,189.915966 C418.396011,189.781513 419.070695,189.680672 419.74538,189.680672 C420.656204,189.680672 421.567028,189.680672 422.511587,189.781513 C424.265767,189.983193 425.648871,190.756303 426.728366,192.134454 C427.369317,192.941176 427.909064,193.815126 428.178938,194.823529 C428.280141,195.193277 428.347609,195.563025 428.381344,195.932773 C428.51628,197.210084 428.550015,198.453782 428.415078,199.697479 C428.212672,201.445378 427.436785,202.890756 426.256087,204.134454 L425.581402,204.840336 C425.24406,205.210084 425.109123,205.647059 425.277794,206.151261 L425.783808,207.798319 C426.087416,208.87395 426.35729,209.983193 426.525961,211.058824 C426.694632,212.134454 427.031974,213.142857 427.403051,214.184874 C427.87533,215.630252 428.381344,217.109244 428.887357,218.554622 C428.98856,218.857143 429.123497,219.12605 429.089762,219.462185 C429.089762,219.831933 428.921091,220.10084 428.550015,220.235294 L428.11147,220.336134 C427.369317,220.436975 426.627163,220.504202 425.918744,220.672269 C425.750073,220.705882 425.581402,220.739496 425.446465,220.739496 Z M421.027281,202.521008 C421.870637,202.386555 422.579055,202.05042 423.118803,201.411765 C424.569375,199.663866 424.670578,197.714286 423.894691,195.731092 C423.48988,194.621849 422.444119,194.151261 421.330889,194.420168 C420.757407,194.521008 420.318862,194.857143 420.251393,195.462185 L420.183925,196.403361 L420.116456,198.084034 L419.914051,201.008403 C419.914051,201.176471 419.880317,201.411765 419.914051,201.613445 C419.947785,202.319328 420.352596,202.621849 421.027281,202.521008 Z M455.267527,223.327731 C456.684365,223.193277 457.493987,222.319328 457.797595,221.008403 C457.898797,220.605042 457.966266,220.302521 457.966266,219.89916 C458,218.991597 458,218.016807 458,217.142857 C458,216.571429 457.966266,216 457.966266,215.428571 C457.932532,214.285714 457.898797,213.176471 457.898797,212.033613 L457.898797,205.848739 L457.76386,200.840336 C457.696392,198.588235 457.527721,196.201681 457.156644,193.815126 C457.156644,193.579832 457.089176,193.378151 457.055441,193.210084 L457.055441,193.07563 C456.920505,192.403361 456.616896,191.865546 456.212086,191.462185 L455.098856,190.386555 C454.525374,189.344538 453.479613,188.840336 452.197712,188.87395 C451.725433,188.907563 451.354356,188.941176 450.98328,189.042017 L450.98328,189.07563 C450.241126,189.176471 449.532708,189.243697 448.925491,189.243697 C448.419478,189.277311 447.980933,189.310924 447.609856,189.378151 C446.395424,189.546218 445.653271,190.252101 445.214726,191.260504 C445.046055,191.630252 444.911118,192.067227 444.843649,192.336134 L444.540041,193.579832 C444.337636,193.008403 444.067762,192.571429 443.764154,192.235294 L442.684658,191.159664 C442.144911,190.184874 441.26782,189.714286 439.98592,189.647059 C439.446172,189.647059 438.704019,189.647059 438.130537,189.680672 C437.590789,189.747899 436.88237,189.747899 436.342622,189.714286 C435.735406,189.647059 434.858316,189.647059 434.116163,189.647059 C432.73306,189.747899 431.889704,190.453782 431.518627,191.596639 C431.341522,192.12605 431.319384,192.655462 431.316617,193.139837 L431.316222,206.521008 C431.316222,207.394958 431.349956,208.840336 431.38369,209.781513 L431.38406,210.024415 C431.385356,210.369125 431.391187,210.883287 431.417424,211.092437 C431.417424,211.294118 431.451159,211.462185 431.451159,211.630252 L431.451159,218.521008 C431.552361,219.932773 432.058375,220.840336 433.036668,221.344538 L434.116163,222.420168 C434.588442,222.890756 435.229393,223.193277 436.072749,223.327731 C436.308888,223.394958 436.376357,223.361345 436.578762,223.361345 L437.894397,223.361345 C439.648577,223.294118 440.559402,222.554622 440.86301,220.941176 C440.896744,220.941176 440.896744,220.97479 440.930478,220.97479 L442.246113,222.285714 C442.718392,222.756303 443.393077,223.02521 444.168965,223.092437 C444.438838,223.092437 444.944852,223.159664 445.24846,223.159664 L445.282194,223.159664 C447.339982,223.193277 448.250807,222.588235 448.75682,220.504202 L448.723086,220.470588 C448.824289,220.10084 448.891757,219.798319 448.959226,219.428571 C449.161631,220.336134 449.63391,221.008403 450.308595,221.378151 L451.523027,222.588235 C451.961572,223.02521 452.568789,223.294118 453.310942,223.361345 C453.951892,223.394958 454.660311,223.394958 455.267527,223.327731 Z M451.759167,220.10084 C451.118216,220.033613 450.713406,219.663866 450.612203,218.957983 C450.578469,218.487395 450.578469,217.983193 450.612203,217.512605 C450.713406,215.563025 450.74714,213.613445 450.645937,211.663866 C450.612203,210.621849 450.443532,209.579832 450.342329,208.504202 C450.173658,206.689076 449.937518,204.87395 449.87005,203.02521 C449.87005,202.420168 449.768847,201.815126 449.600176,201.243697 C449.296568,200.369748 448.925491,201.176471 448.824289,201.546218 C448.621883,202.352941 448.453212,203.193277 448.284541,204.033613 C448.014667,205.344538 447.778527,206.655462 447.542388,208 L447.070109,210.689076 L445.754473,217.277311 C445.687005,217.680672 445.619537,218.084034 445.518334,218.453782 C445.24846,219.596639 444.742446,219.932773 443.595483,219.89916 L442.650924,219.831933 C441.976239,219.764706 441.50396,219.428571 441.335289,218.756303 C441.234086,218.386555 441.166618,218.016807 441.099149,217.647059 C440.930478,216.369748 440.761807,215.058824 440.559402,213.781513 C440.424465,212.87395 440.289528,211.966387 440.120857,211.092437 L439.344969,206.789916 C439.142564,205.647059 438.906424,204.537815 438.670285,203.428571 C438.569082,203.092437 438.467879,202.789916 438.332942,202.487395 C438.299208,202.386555 438.265474,202.218487 438.130537,202.218487 C437.826929,202.252101 437.860663,202.823529 437.860663,203.12605 C437.826929,203.731092 437.826929,204.302521 437.860663,204.87395 C437.894397,206.420168 437.860663,207.932773 437.75946,209.445378 L437.75946,209.781513 C437.75946,212.336134 437.725726,214.890756 437.725726,217.445378 C437.725726,217.747899 437.725726,218.084034 437.691992,218.386555 C437.691992,218.521008 437.691992,218.655462 437.658258,218.789916 C437.523321,219.697479 437.084776,220.067227 436.173951,220.10084 L434.89205,220.10084 C434.824582,220.10084 434.757114,220.10084 434.689645,220.067227 C433.643884,219.966387 433.205339,219.495798 433.13787,218.453782 L433.13787,212.134454 C433.13787,211.361345 433.070402,210.554622 433.070402,209.747899 C433.036668,208.672269 433.002933,207.596639 433.002933,206.521008 L433.002933,193.344538 C433.002933,192.941176 433.002933,192.537815 433.13787,192.134454 C433.306542,191.630252 433.643884,191.361345 434.183632,191.327731 C434.858316,191.327731 435.566735,191.327731 436.275154,191.394958 C436.949839,191.428571 437.590789,191.428571 438.265474,191.361345 C438.838956,191.327731 439.412438,191.327731 439.952185,191.327731 C440.694339,191.361345 441.132884,191.697479 441.369023,192.403361 C441.470226,192.773109 441.537694,193.176471 441.605163,193.579832 L442.549721,199.058824 C442.684658,199.865546 442.718392,200.705882 442.819595,201.512605 L442.988266,203.731092 L443.123203,204.672269 C443.156938,204.87395 443.25814,205.109244 443.426811,205.210084 C443.696685,205.210084 443.764154,205.008403 443.831622,204.806723 C444.000293,204.302521 444.168965,203.798319 444.270167,203.260504 C444.506307,202.352941 444.708712,201.445378 444.877383,200.504202 L445.552068,196.941176 C445.855676,195.529412 446.159284,194.151261 446.496627,192.739496 C446.564095,192.470588 446.631564,192.201681 446.7665,191.932773 C446.968906,191.428571 447.306248,191.12605 447.845996,191.058824 C448.217072,190.991597 448.621883,190.957983 448.99296,190.92437 C449.768847,190.92437 450.511,190.823529 451.253153,190.722689 C451.62423,190.655462 451.961572,190.588235 452.332649,190.554622 C453.074802,190.521008 453.61455,190.857143 453.783221,191.596639 C453.816955,191.798319 453.884424,191.966387 453.884424,192.168067 C454.2555,194.521008 454.424171,196.840336 454.49164,199.193277 L454.626577,204.168067 C454.626577,206.218487 454.592842,208.302521 454.626577,210.352941 C454.626577,212.067227 454.694045,213.747899 454.727779,215.462185 C454.727779,216.336134 454.727779,217.243697 454.694045,218.151261 C454.694045,218.420168 454.660311,218.689076 454.592842,218.92437 C454.457906,219.630252 454.086829,220.033613 453.37841,220.067227 C452.838662,220.134454 452.298915,220.134454 451.759167,220.10084 Z" id="unform"></path>
        </g>
    </g>
</svg>